<svg width="56" height="56" viewBox="0 0 56 56" fill="none" xmlns="http://www.w3.org/2000/svg">
<path d="M22.7498 48.65C26.9031 47.0167 25.9931 42.5134 23.8931 39.6667C21.8165 36.75 18.9465 34.7434 16.0531 32.8067C13.9887 31.5055 12.1455 29.8829 10.5931 28C9.93979 27.23 8.60979 25.8067 9.96313 25.5267C11.3398 25.2467 13.7198 26.6 14.9331 27.1134C17.0565 28 19.1565 29.0267 21.1165 30.24L23.4731 26.2734C19.8331 23.87 15.1665 21.7467 10.8265 21.1167C8.35313 20.7434 5.73979 21.2567 4.89979 23.94C4.15313 26.25 5.34313 28.5834 6.69646 30.4034C9.89313 34.6734 14.8631 36.7267 18.5731 40.4134C19.3665 41.1834 20.3231 42.0934 20.7898 43.1667C21.2798 44.1934 21.1631 44.2634 20.0665 44.2634C17.1731 44.2634 13.5565 42 11.1998 40.5067L8.84313 44.4734C12.4131 46.6667 18.3865 50.0967 22.7498 48.65ZM48.6265 12.25C49.1398 11.7367 49.1398 10.8967 48.6265 10.4067L45.5931 7.37337C45.3487 7.13783 45.0225 7.00623 44.6831 7.00623C44.3437 7.00623 44.0175 7.13783 43.7731 7.37337L41.3931 9.75337L46.2465 14.6067L48.6265 12.25ZM25.6665 25.48V30.3334H30.5198L44.8698 15.9834L40.0165 11.13L25.6665 25.48Z" fill="#2091F9"/>
</svg>
